<?xml version="1.0" encoding="UTF-8"?>
<svg id="a" data-name="Layer 1" xmlns="http://www.w3.org/2000/svg" viewBox="0 0 42.5 26.04">
  <path d="M5.46,16.8l1.42-1.38c.72-.7,1.38-1.47,1.99-2.29h-3.4s0,.02,0,.03v3.64Z"/>
  <path d="M39.55,10.22h-1.85c-.37,1.66-1.85,2.91-3.62,2.91H14.48c-2.38,1.88-5.18,3.18-8.12,3.78l-.9,.18v2.55c0,1.62,1.32,2.94,2.94,2.94H28.28l.1,.08c1.95,1.56,4.19,2.71,6.56,3.38-.87-.87-1.67-1.83-2.37-2.87l-.41-.6h7.38c1.62,0,2.94-1.32,2.94-2.94v-6.47c0-1.62-1.32-2.94-2.94-2.94Z"/>
  <path d="M2.94,12.36h7.38l-.41,.6c-.71,1.04-1.5,2-2.37,2.87,2.37-.67,4.61-1.83,6.56-3.38l.1-.08h19.88c1.62,0,2.94-1.32,2.94-2.94V2.94c0-1.62-1.32-2.94-2.94-2.94H2.94C1.32,0,0,1.32,0,2.94v6.48c0,1.62,1.32,2.94,2.94,2.94Z"/>
</svg>