<?xml version="1.0" encoding="UTF-8"?>
<svg id="a" data-name="Layer 1" xmlns="http://www.w3.org/2000/svg" viewBox="0 0 74.64 76.41">
  <defs>
    <style>
      .b {
        stroke: #000;
        stroke-miterlimit: 10;
      }
    </style>
  </defs>
  <path class="b" d="M70.47,42.99L38.37,4.43c-.55-.66-1.56-.66-2.11,0L4.17,42.99c-.74,.89-.11,2.25,1.06,2.25h4.13v23.78c0,1.91,1.55,3.45,3.45,3.45H61.83c1.91,0,3.45-1.55,3.45-3.45v-23.78h4.13c1.16,0,1.8-1.36,1.06-2.25Zm-33.15,15.34c-6.04,0-10.94-4.9-10.94-10.94s4.9-10.94,10.94-10.94,10.94,4.9,10.94,10.94-4.9,10.94-10.94,10.94Z"/>
</svg>