<?xml version="1.0" encoding="UTF-8"?>
<svg id="a" data-name="Layer 1" xmlns="http://www.w3.org/2000/svg" viewBox="0 0 34.25 35.31">
  <defs>
    <style>
      .c {
        stroke: #000;
        stroke-miterlimit: 10;
      }
    </style>
  </defs>
  <g id="b" data-name="Like">
    <path class="c" d="M25.8,8.19c-1.45-.89-3.04-1.16-4.72-.86-1.14,.21-2.17,.69-3.06,1.43-.32,.27-.61,.57-.92,.87,0,0-.02-.02-.03-.03-.71-.84-1.58-1.47-2.59-1.88-1.13-.46-2.32-.6-3.53-.43-1.15,.17-2.18,.6-3.1,1.31-1.32,1.02-2.16,2.34-2.52,3.98-.21,.95-.17,1.91-.03,2.87,.21,1.47,.77,2.8,1.57,4.04,1,1.54,2.29,2.79,3.71,3.94,1.24,1,2.56,1.87,3.87,2.77,.76,.52,1.51,1.06,2.26,1.6,.14,.1,.27,.22,.38,.32,.62-.45,1.21-.91,1.82-1.33,1.05-.73,2.11-1.43,3.16-2.16,1.32-.93,2.57-1.94,3.68-3.11,.83-.87,1.56-1.82,2.13-2.89,.62-1.17,1.01-2.4,1.13-3.72,.09-.95,.05-1.89-.23-2.81-.5-1.68-1.5-2.98-2.99-3.89Z"/>
  </g>
</svg>