<?xml version="1.0" encoding="UTF-8"?>
<svg id="a" data-name="Layer 1" xmlns="http://www.w3.org/2000/svg" viewBox="0 0 75.73 75.73">
  <defs>
    <style>
      .b {
        stroke: #000;
        stroke-miterlimit: 10;
      }
    </style>
  </defs>
  <path class="b" d="M7.87,12.87V62.86c0,2.76,2.24,5,5,5H62.86c2.76,0,5-2.24,5-5V12.87c0-2.76-2.24-5-5-5H12.87c-2.76,0-5,2.24-5,5Zm51.62,28.4h-18.22v18.22c0,1.88-1.52,3.4-3.4,3.4s-3.4-1.52-3.4-3.4v-18.22H16.25c-1.88,0-3.4-1.52-3.4-3.4s1.52-3.4,3.4-3.4h18.22V16.25c0-1.88,1.52-3.4,3.4-3.4s3.4,1.52,3.4,3.4v18.22h18.22c1.88,0,3.4,1.52,3.4,3.4s-1.52,3.4-3.4,3.4Z"/>
</svg>