<?xml version="1.0" encoding="UTF-8"?>
<svg id="a" data-name="Layer 1" xmlns="http://www.w3.org/2000/svg" viewBox="0 0 74.64 76.41">
  <defs>
    <style>
      .b {
        stroke: #000;
        stroke-miterlimit: 10;
      }
    </style>
  </defs>
  <path class="b" d="M7.32,14.81v50.47c0,2.63,2.13,4.77,4.77,4.77h3.91s0-7.41,0-7.41c0-9.66,6.43-17.81,15.24-20.43-6.06-3.31-9.14-11.41-4.13-19.21,.56-.87,1.31-1.62,2.18-2.18,10.13-6.5,20.76,.62,20.76,10.22,0,4.82-2.68,9.01-6.64,11.17,8.81,2.62,15.24,10.77,15.24,20.43v7.41h3.91c2.63,0,4.77-2.13,4.77-4.77V14.81c0-2.63-2.13-4.77-4.77-4.77H12.08c-2.63,0-4.77,2.13-4.77,4.77Z"/>
</svg>